<?xml version="1.0" encoding="UTF-8" standalone="no"?>
<!-- Created with Inkscape (http://www.inkscape.org/) -->

<svg
   width="15"
   height="15"
   viewBox="0 0 3.9687499 3.96875"
   version="1.1"
   id="svg1"
   inkscape:version="1.4.2 (1:1.4.2+202505120737+ebf0e940d0)"
   sodipodi:docname="cpu.svg"
   xmlns:inkscape="http://www.inkscape.org/namespaces/inkscape"
   xmlns:sodipodi="http://sodipodi.sourceforge.net/DTD/sodipodi-0.dtd"
   xmlns="http://www.w3.org/2000/svg"
   xmlns:svg="http://www.w3.org/2000/svg">
  <style
     id="style1">
.cpucolor { 
    fill:white;
}
</style>
  <sodipodi:namedview
     id="namedview1"
     pagecolor="#5e5e5e"
     bordercolor="#eeeeee"
     borderopacity="1"
     inkscape:showpageshadow="0"
     inkscape:pageopacity="0"
     inkscape:pagecheckerboard="0"
     inkscape:deskcolor="#2d2d2d"
     inkscape:document-units="px"
     inkscape:zoom="27.507045"
     inkscape:cx="6.1620577"
     inkscape:cy="12.99667"
     inkscape:window-width="1920"
     inkscape:window-height="1052"
     inkscape:window-x="0"
     inkscape:window-y="0"
     inkscape:window-maximized="1"
     inkscape:current-layer="layer1"
     showguides="true">
    <sodipodi:guide
       position="1.9844185,3.7041666"
       orientation="0,-1"
       id="guide13"
       inkscape:locked="false" />
  </sodipodi:namedview>
  <defs
     id="defs1">
    <linearGradient
       id="swatch13"
       inkscape:swatch="solid"
       inkscape:label="CPU_COL">
      <stop
         style="stop-color:#000000;stop-opacity:1;"
         offset="0"
         id="stop13" />
    </linearGradient>
  </defs>
  <g
     inkscape:label="Layer 1"
     inkscape:groupmode="layer"
     id="layer1">
    <path
       id="cpu"
       style="baseline-shift:baseline;display:inline;overflow:visible;vector-effect:none;stroke-linejoin:round;enable-background:accumulate;stop-color:#000000;stop-opacity:1;opacity:1"
       d="M 1.0588501 0 L 1.0588501 0.52916666 L 0.92552489 0.52916666 C 0.70794452 0.52916666 0.52916666 0.70794452 0.52916666 0.92552489 L 0.52916666 1.0588501 L 0 1.0588501 L 0 1.3223999 L 0.52916666 1.3223999 L 0.52916666 1.8515665 L 0 1.8515665 L 0 2.1171834 L 0.52916666 2.1171834 L 0.52916666 2.6463501 L 0 2.6463501 L 0 2.9098999 L 0.52916666 2.9098999 L 0.52916666 3.0432251 C 0.52916666 3.2608054 0.70794452 3.4395833 0.92552489 3.4395833 L 1.0588501 3.4395833 L 1.0588501 3.9687499 L 1.3223999 3.9687499 L 1.3223999 3.4395833 L 1.8515665 3.4395833 L 1.8515665 3.9687499 L 2.1171834 3.9687499 L 2.1171834 3.4395833 L 2.6463501 3.4395833 L 2.6463501 3.9687499 L 2.9098999 3.9687499 L 2.9098999 3.4395833 L 3.0432251 3.4395833 C 3.2608054 3.4395833 3.4395833 3.2608054 3.4395833 3.0432251 L 3.4395833 2.9098999 L 3.9687499 2.9098999 L 3.9687499 2.6463501 L 3.4395833 2.6463501 L 3.4395833 2.1171834 L 3.9687499 2.1171834 L 3.9687499 1.8515665 L 3.4395833 1.8515665 L 3.4395833 1.3223999 L 3.9687499 1.3223999 L 3.9687499 1.0588501 L 3.4395833 1.0588501 L 3.4395833 0.92552489 C 3.4395833 0.70794452 3.2608054 0.52916667 3.0432251 0.52916666 L 2.9098999 0.52916666 L 2.9098999 0 L 2.6463501 0 L 2.6463501 0.52916666 L 2.1171834 0.52916666 L 2.1171834 0 L 1.8515665 0 L 1.8515665 0.52916666 L 1.3223999 0.52916666 L 1.3223999 0 L 1.0588501 0 z M 0.92552489 0.79271646 L 3.0432251 0.79271646 C 3.1188031 0.79271646 3.1760335 0.84994699 3.1760335 0.92552489 L 3.1760335 3.0432251 C 3.1760335 3.1188031 3.1188026 3.1760335 3.0432251 3.1760335 L 0.92552489 3.1760335 C 0.84994689 3.1760335 0.79271646 3.1188026 0.79271646 3.0432251 L 0.79271646 0.92552489 C 0.79271646 0.84994689 0.84994699 0.79271646 0.92552489 0.79271646 z "
       class="cpucolor"
       inkscape:label="#cpu" />
  </g>
</svg>
